<svg xmlns="http://www.w3.org/2000/svg" version="1.1" xmlns:xlink="http://www.w3.org/1999/xlink" xmlns:svgjs="http://svgjs.dev/svgjs" width="1440" height="800" preserveAspectRatio="none" viewBox="0 0 1440 800"><g mask="url(&quot;#SvgjsMask1327&quot;)" fill="none"><rect width="1440" height="800" x="0" y="0" fill="rgba(7, 51, 47, 1)"></rect><path d="M10 800L810 0L1087.5 0L287.5 800z" fill="url(&quot;#SvgjsLinearGradient1328&quot;)"></path><path d="M561.2 800L1361.2 0L2006.2 0L1206.2 800z" fill="url(&quot;#SvgjsLinearGradient1328&quot;)"></path><path d="M1426 800L626 0L138.5 0L938.5 800z" fill="url(&quot;#SvgjsLinearGradient1329&quot;)"></path><path d="M907.8 800L107.79999999999995 0L-345.20000000000005 0L454.79999999999995 800z" fill="url(&quot;#SvgjsLinearGradient1329&quot;)"></path><path d="M825.6282454930512 800L1440 185.62824549305117L1440 800z" fill="url(&quot;#SvgjsLinearGradient1328&quot;)"></path><path d="M0 800L614.3717545069488 800L 0 185.62824549305117z" fill="url(&quot;#SvgjsLinearGradient1329&quot;)"></path></g><defs><mask id="SvgjsMask1327"><rect width="1440" height="800" fill="#ffffff"></rect></mask><linearGradient x1="0%" y1="100%" x2="100%" y2="0%" id="SvgjsLinearGradient1328"><stop stop-color="rgba(15, 70, 185, 0.2)" offset="0"></stop><stop stop-opacity="0" stop-color="rgba(15, 70, 185, 0.2)" offset="0.66"></stop></linearGradient><linearGradient x1="100%" y1="100%" x2="0%" y2="0%" id="SvgjsLinearGradient1329"><stop stop-color="rgba(15, 70, 185, 0.2)" offset="0"></stop><stop stop-opacity="0" stop-color="rgba(15, 70, 185, 0.2)" offset="0.66"></stop></linearGradient></defs></svg>